<svg xmlns="http://www.w3.org/2000/svg" xmlns:xlink="http://www.w3.org/1999/xlink"><symbol id="icon-arda" fill="none" viewBox="0 0 83 37"><path fill="#03000e" fill-rule="evenodd" d="m67.843 16.466 2.871 8.084h-5.7zm5.152 14.105h4.18L67.843 6.656l-9.29 23.915h4.223l.97-2.694h8.235zm-25.802-3.79V11.12s9.67-1.474 9.67 7.83c0 9.18-9.67 7.833-9.67 7.833M43.266 7.329v23.242h3.927c5.786 0 13.598-1.685 13.598-11.621 0-10.316-7.939-11.621-13.598-11.621zm-13.09 3.873H33.3s3.885 0 3.885 2.906c0 2.274-2.364 2.779-3.377 2.905zm12.12 19.37L35.96 20.465c2.238-.632 5.11-2.232 5.11-6.358 0-6.779-7.77-6.779-7.77-6.779h-7.77v3.873l3.673 5.811H25.53V30.57h3.884v-9.684h2.239l6.08 9.684zM15.437 16.465l2.83 8.084h-5.66zm5.11 14.105h4.223L15.438 6.655l-9.29 23.916h4.18l1.014-2.695h8.192z" clip-rule="evenodd"/><path fill="#03000e" fill-rule="evenodd" d="M82.55.835H.773v35.111H82.55zM.328.391v36h82.667v-36z" clip-rule="evenodd"/></symbol><use xlink:href="#icon-arda" width="83" height="37" y="5" fill="none"/><symbol id="icon-arrow-right" fill="none" viewBox="0 0 98 64"><path fill="currentColor" d="M0 36.087V27.54h82.822L60.574 5.291 66 .001l31.813 31.812L66 63.626l-5.426-5.29 22.248-22.25z"/></symbol><use xlink:href="#icon-arrow-right" width="98" height="64" y="47" fill="none"/><symbol id="icon-award-behance" fill="none" viewBox="0 0 27 28"><path fill="#03000e" d="M8.607 7.584c.58 0 1.116.048 1.606.19.444.086.869.263 1.249.52q.534.357.803.996c.178.426.267.947.267 1.516 0 .664-.134 1.232-.446 1.659-.268.426-.713.805-1.249 1.09.758.236 1.338.663 1.695 1.232.357.568.58 1.279.58 2.084 0 .664-.134 1.232-.357 1.706a3.1 3.1 0 0 1-.981 1.185c-.436.305-.92.53-1.427.663-.535.142-1.07.237-1.606.237H2.766V7.584zm-.356 5.307c.49 0 .892-.142 1.204-.379s.446-.663.446-1.184c0-.285-.045-.569-.134-.758a1.3 1.3 0 0 0-.401-.475c-.178-.094-.357-.19-.58-.236-.223-.048-.446-.048-.713-.048H5.486v3.08zm.134 5.592c.267 0 .535-.048.758-.095.223-.048.446-.143.624-.285a1.7 1.7 0 0 0 .446-.52c.09-.238.179-.522.179-.854 0-.663-.18-1.137-.536-1.469-.357-.284-.847-.426-1.427-.426H5.486v3.649zm8.607-.048q.534.57 1.605.569c.49 0 .936-.143 1.293-.38q.535-.426.67-.852h2.184c-.357 1.137-.891 1.942-1.605 2.463-.714.475-1.56.759-2.587.759a5 5 0 0 1-1.917-.38 3.6 3.6 0 0 1-1.427-1.041 3.8 3.8 0 0 1-.892-1.564c-.223-.616-.313-1.28-.313-2.038 0-.71.09-1.374.313-1.99.214-.594.532-1.14.936-1.61.402-.427.892-.807 1.428-1.043a4.7 4.7 0 0 1 1.872-.38c.758 0 1.428.142 2.007.474s1.026.711 1.383 1.28c.356.52.624 1.137.803 1.8.089.663.133 1.327.089 2.085h-6.467c0 .758.268 1.47.625 1.848M19.8 13.46c-.312-.332-.803-.521-1.382-.521-.402 0-.714.094-.981.236-.268.143-.447.332-.625.522s-.268.426-.312.663c-.045.237-.09.426-.09.616h4.014c-.089-.71-.311-1.185-.624-1.516m-3.924-4.975h4.994v1.279h-4.994z"/></symbol><use xlink:href="#icon-award-behance" width="27" height="28" y="116" fill="none"/><symbol id="icon-award-cssda" fill="none" viewBox="0 0 27 28"><path fill="#03000e" d="m14.956 17.102-5.478-5.626 5.478-5.624H9.478L4 11.476l2.739 2.845 5.478 5.561z"/><path fill="#03000e" d="m18.857 14.321-2.739-2.844-2.739-2.78-2.678 2.78 5.417 5.625-5.477 5.625h5.478l2.738-2.781 2.739-2.844z"/></symbol><use xlink:href="#icon-award-cssda" width="27" height="28" y="149" fill="none"/><symbol id="icon-award-dprofile" fill="none" viewBox="0 0 27 28"><path fill="#000" fill-rule="evenodd" d="M22.83 2.809H4.174A1.924 1.924 0 0 0 2.25 4.732v18.653a1.923 1.923 0 0 0 1.924 1.924H22.83a1.924 1.924 0 0 0 1.92-1.924V4.732a1.924 1.924 0 0 0-1.92-1.923m.427 14.47a6.533 6.533 0 0 1-6.534 6.529h-6.432a6.53 6.53 0 0 1-6.53-6.53v-6.444a6.5 6.5 0 0 1 .497-2.499 6.53 6.53 0 0 1 3.534-3.534 6.5 6.5 0 0 1 2.5-.496h6.445a6.535 6.535 0 0 1 6.534 6.53l-.015 6.444z" clip-rule="evenodd"/></symbol><use xlink:href="#icon-award-dprofile" width="27" height="28" y="182" fill="none"/><symbol id="icon-award-goldensite" fill="none" viewBox="0 0 48 49"><path fill="#03000e" fill-rule="evenodd" d="M28.349 13.076a3.08 3.08 0 1 0-1.968 5.838 3.08 3.08 0 0 0 1.968-5.838m-1.695 31.793a.835.835 0 1 1 .8-1.465.835.835 0 0 1-.8 1.465m-1.036-2.068a1.387 1.387 0 1 1 1.33-2.437 1.388 1.388 0 0 1-1.33 2.437m-1.886-2.851a2.63 2.63 0 0 1 .078-4.658c.702-2.212 1.293-5 1.134-7.263-.1-1.437-.503-2.585-1.419-2.955-1.114-.45-2.284-.076-3.403.764-1.654 1.24-3.177 3.4-4.388 5.663a2.63 2.63 0 1 1-3.04-1.63c1.417-2.643 3.261-5.213 5.361-6.788 1.305-.979 2.701-1.592 4.16-1.664a7.9 7.9 0 0 1-1.605-2.316c-.79-1.706-1.087-3.791-.796-5.953a2.63 2.63 0 1 1 2.93.33c-.23 1.624-.028 3.16.54 4.385.507 1.097 1.314 1.931 2.36 2.312s2.201.26 3.295-.253c1.2-.564 2.325-1.584 3.187-2.94a2.63 2.63 0 1 1 1.957 2.35c-1.09 1.455-2.442 2.576-3.891 3.257-1.079.506-2.21.774-3.336.764.952 1.145 1.411 2.703 1.533 4.444.185 2.655-.457 5.82-1.237 8.343a2.63 2.63 0 0 1-3.42 3.808m-16.92-3.876a.835.835 0 1 0 .544-1.58.835.835 0 0 0-.544 1.58m2.228-.627a1.388 1.388 0 1 0 .906-2.623 1.388 1.388 0 0 0-.906 2.623M20.036 3.885a.834.834 0 1 1-.834 1.445.834.834 0 0 1 .834-1.445m21.148 9.218a.834.834 0 1 0-.533 1.581.834.834 0 0 0 .533-1.581M21.022 5.978a1.388 1.388 0 1 1-1.389 2.404 1.388 1.388 0 0 1 1.39-2.404m17.939 7.768a1.388 1.388 0 1 0-.887 2.631 1.388 1.388 0 0 0 .887-2.63" clip-rule="evenodd"/></symbol><use xlink:href="#icon-award-goldensite" width="48" height="49" y="215" fill="none"/><symbol id="icon-award-runet" fill="none" viewBox="0 0 27 28"><path fill="#03000e" d="M10.396 4.933h1.6v.843h-1.6zM8.797 13.37h.8V5.776h.8v10.125h-.8v-1.687h-.8zm-1.599 1.688h-.8v-2.532h2.4v.844h-1.6zm.8.843h-.8v-.843h.8zm.799 1.688h-.8V15.9h.8zm.8 1.687h-.8V17.59h.8zm.8 1.688h-.8v-1.688h.8zm.799 1.687v-1.687h-.8v2.531h7.996v-2.531h.799v-2.531h.8v-5.907h-.8v-.843h-.8v-.844h-1.599v-.844h-2.398v-.844h-1.6V5.776h-.799v7.594h.8V9.995h1.599v3.375h.8v-2.53h1.598v.844h1.6v.843h.799v5.907h-.8v2.53h-.799v1.688z"/></symbol><use xlink:href="#icon-award-runet" width="27" height="28" y="269" fill="none"/><symbol id="icon-award-tagline" fill="none" viewBox="0 0 27 28"><path fill="#03000e" d="M8.743 22.234c-.644.02-.644.02-.839-.529-.506-1.402-.993-2.825-1.52-4.228-.078-.203-.078-.366.02-.548a5441 5441 0 0 0 5.379-10.57c.117-.224.175-.265.409-.123 2.67 1.87 5.34 3.72 8.03 5.59.194.122.233.204.096.427-1.968 3.13-3.917 6.281-5.885 9.432-.078.122-.136.224-.312.244-1.812.081-3.625.203-5.378.305m1.403-4.757c-.838-.02-1.5.65-1.52 1.505-.02.813.623 1.564 1.364 1.585.877.04 1.578-.65 1.598-1.545.02-.813-.643-1.524-1.442-1.545"/></symbol><use xlink:href="#icon-award-tagline" width="27" height="28" y="302" fill="none"/><symbol id="icon-award-workspace" fill="none" viewBox="0 0 48 49"><path fill="#03000e" fill-rule="evenodd" d="m41.308 20.236-10.407 7.742 4.46 13.536-11.279-8.408-11.279 8.408 4.153-12.664h2.82v4.256h4.306V28.85h-4.306v-4.307h-4.307v-4.307h4.307v4.307h4.306v-4.307h-4.306L24.082 7.06l4.307 13.176zm-25.89 7.589h-3.281v-3.282h3.28zm-8.613-7.589H9.88v3.025H6.805z" clip-rule="evenodd"/></symbol><use xlink:href="#icon-award-workspace" width="48" height="49" y="335" fill="none"/><symbol id="icon-dropdown" fill="none" viewBox="0 0 16 16"><path stroke="currentcolor" stroke-width="2" d="m1 4 7 7 7-7"/></symbol><use xlink:href="#icon-dropdown" width="16" height="16" y="389" fill="none"/><symbol id="icon-ext-link" viewBox="0 0 512 512"><path fill="currentcolor" d="M320 0c-17.7 0-32 14.3-32 32s14.3 32 32 32h82.7L201.4 265.4c-12.5 12.5-12.5 32.8 0 45.3s32.8 12.5 45.3 0L448 109.3V192c0 17.7 14.3 32 32 32s32-14.3 32-32V32c0-17.7-14.3-32-32-32zM80 32C35.8 32 0 67.8 0 112v320c0 44.2 35.8 80 80 80h320c44.2 0 80-35.8 80-80V320c0-17.7-14.3-32-32-32s-32 14.3-32 32v112c0 8.8-7.2 16-16 16H80c-8.8 0-16-7.2-16-16V112c0-8.8 7.2-16 16-16h112c17.7 0 32-14.3 32-32s-14.3-32-32-32z"/></symbol><use xlink:href="#icon-ext-link" width="48" height="48" y="410"/><symbol id="icon-pitcher-sign" fill="none" viewBox="0 0 41 41"><path fill="currentcolor" d="M12.704 31.5V11.258h7.998q.295 0 .703.028.408.014.787.084 1.645.254 2.755 1.125a5.4 5.4 0 0 1 1.687 2.207q.563 1.32.563 2.938 0 1.602-.577 2.938a5.5 5.5 0 0 1-1.687 2.207q-1.11.871-2.74 1.124-.38.056-.788.085-.408.027-.703.028h-5.496V31.5zm2.502-9.854h5.412q.267 0 .604-.028.352-.029.661-.098.97-.225 1.574-.816.62-.604.9-1.406.282-.815.281-1.658c0-.843-.093-1.11-.28-1.645a3.6 3.6 0 0 0-.9-1.42q-.605-.604-1.575-.815a3 3 0 0 0-.66-.098 7 7 0 0 0-.605-.029h-5.412zm9.898 9.854v-2.755h2.755V31.5z"/><rect width="38.657" height="38.657" x="1.171" y="1.171" stroke="currentcolor" stroke-width="2.343" rx="19.328"/></symbol><use xlink:href="#icon-pitcher-sign" width="41" height="41" y="463" fill="none"/><symbol id="icon-review-runet" fill="none" viewBox="0 0 48 49"><path fill="#d9ad68" d="M0 .873h48v48H0z"/><path fill="#03000e" d="M29.34 27.186q.999 0 1.74-.243.742-.256 1.228-.715.5-.472.742-1.133.242-.674.242-1.497 0-.783-.242-1.416-.243-.634-.729-1.08-.485-.444-1.227-.674-.743-.243-1.754-.243h-2.711v7zm0-9.806q1.956 0 3.386.459 1.43.458 2.36 1.28a5 5 0 0 1 1.377 1.97q.458 1.147.458 2.509 0 1.416-.472 2.603-.472 1.174-1.416 2.023c-.944.85-1.421 1.008-2.375 1.322q-1.416.472-3.318.472h-2.711v6.866H23V17.38z"/><path fill="#fff" d="M17.352 22.69q.997 0 1.74-.243.742-.256 1.227-.715.5-.472.742-1.133.243-.675.243-1.497 0-.783-.243-1.416a2.8 2.8 0 0 0-.728-1.08q-.486-.444-1.228-.674-.742-.243-1.753-.243H14.64v7zm0-9.806q1.955 0 3.386.458 1.43.459 2.36 1.282a5 5 0 0 1 1.376 1.969q.459 1.146.459 2.509 0 1.416-.472 2.603-.472 1.174-1.417 2.023c-.945.85-1.42 1.007-2.374 1.322q-1.416.472-3.318.472H14.64v6.866h-3.628V12.884z"/></symbol><use xlink:href="#icon-review-runet" width="48" height="49" y="509" fill="none"/><symbol id="icon-star" fill="none" viewBox="0 0 48 48"><path fill="currentcolor" stroke="currentcolor" stroke-width="2.7" d="m24 4.564 4.382 13.487.303.933h15.16l-11.471 8.335-.794.576.303.933 4.382 13.487-11.471-8.335-.794-.577-.794.577-11.471 8.335 4.382-13.487.303-.933-.794-.576-11.471-8.335h15.16l.303-.933z"/></symbol><use xlink:href="#icon-star" width="48" height="48" y="563" fill="none"/></svg>