<svg xmlns="http://www.w3.org/2000/svg" width="130" height="70" fill="none" viewBox="0 0 130 70"><path fill="#000" d="M41.116 46.493c.586-.26.977-.786.977-1.507 0-1.113-.848-2.032-2.477-2.032H36.62v5.375c0 1.508.652 2.033 1.759 2.033h1.368c1.76 0 2.738-.853 2.738-2.1-.065-.981-.652-1.506-1.368-1.769m-3.325-2.49h1.63c1.043 0 1.434.393 1.434 1.048 0 .59-.391 1.05-1.435 1.05h-1.63zm1.76 5.31H38.51c-.587 0-.782-.198-.782-1.18v-1.05h1.628c1.174 0 1.825.329 1.825 1.115 0 .721-.522 1.115-1.629 1.115m-13.295-6.36h-4.56c-.065 2.23-.391 4.393-1.043 6.425H20V52h1.174v-1.638h4.756v1.636h1.173V49.38h-.847zm-1.239 6.425h-3.125c.522-1.77.781-3.736.912-5.374h2.281v5.374zm6.714-6.554c-1.956 0-3.585 1.44-3.585 3.867 0 2.293 1.564 3.867 3.65 3.867 1.304 0 2.216-.525 2.216-.918a.75.75 0 0 0-.196-.525 3.6 3.6 0 0 1-1.825.459c-1.368 0-2.477-.786-2.607-2.36h4.106c.522 0 .782-.13.978-.59.13-.262.196-.654.196-1.047 0-1.64-1.172-2.753-2.933-2.753m1.63 3.277h-4.043c.13-1.442 1.107-2.295 2.346-2.295 1.108 0 1.825.657 1.825 1.705 0 .263 0 .457-.13.59zm67.32-.066h-3.65v-3.081h-1.173v7.408h1.174v-3.344h3.649v3.344h1.173v-7.408h-1.173zM83.87 42.954l-2.218 3.933-2.216-3.933h-1.173l-.911 7.408h1.172l.716-5.77 1.89 3.41h1.11l1.89-3.408.716 5.766h1.173l-.914-7.406h-1.238zm7.233-.13c-1.955 0-3.583 1.44-3.583 3.867 0 2.293 1.563 3.867 3.65 3.867 1.303 0 2.214-.525 2.214-.918a.75.75 0 0 0-.195-.525 3.6 3.6 0 0 1-1.825.459c-1.368 0-2.477-.786-2.607-2.36h4.106c.522 0 .782-.13.978-.59.13-.262.196-.654.196-1.047 0-1.64-1.174-2.753-2.934-2.753m1.629 3.277h-4.04c.13-1.442 1.108-2.295 2.346-2.295 1.109 0 1.825.657 1.825 1.705a1.3 1.3 0 0 1-.131.59m10.95-3.147v1.05h2.54v6.356h1.174v-6.356h2.54v-1.05zm-56.047-.13c-1.955 0-3.585 1.44-3.585 3.867 0 2.293 1.563 3.867 3.65 3.867 1.303 0 2.215-.525 2.215-.918a.75.75 0 0 0-.196-.525 3.6 3.6 0 0 1-1.823.459c-1.369 0-2.477-.786-2.607-2.36h4.106c.52 0 .781-.13.978-.59.13-.262.194-.654.194-1.047 0-1.64-1.173-2.753-2.932-2.753m1.629 3.277h-4.04c.13-1.442 1.107-2.295 2.344-2.295 1.109 0 1.827.657 1.827 1.705a1.3 1.3 0 0 1-.131.59m3.584 1.9c-.195 1.246-.52 1.508-.977 1.508a1.7 1.7 0 0 1-.782-.197c-.065.132-.196.393-.196.525 0 .262.652.59 1.238.59 1.043 0 1.696-.655 1.89-2.36.195-1.376.262-3.015.325-4.194h3.064v6.356h1.173v-7.275h-5.41c0 1.836-.129 3.672-.324 5.048zm16.619 2.36h1.173v-6.357h3.583v6.356h1.174v-7.406H69.4v7.408zm-5.41-7.537c-1.955 0-3.584 1.44-3.584 3.867 0 2.424 1.63 3.867 3.584 3.867s3.585-1.443 3.585-3.867c0-2.492-1.696-3.867-3.585-3.867m.065 6.685c-1.238 0-2.41-.984-2.41-2.884 0-1.901 1.107-2.752 2.28-2.752 1.239 0 2.413.982 2.413 2.883s-1.11 2.753-2.283 2.753M47.045 29.275h2.738a3.995 3.995 0 0 0 3.91-3.016h-2.738c-1.823 0-3.388 1.246-3.91 3.016m-7.82-10.881a7.9 7.9 0 0 0-3.209.692 7.95 7.95 0 0 0-2.655 1.93c-.915.982-2.803 3.407-3.912 4.784L20 37.141h3.129c1.368 0 2.671-.59 3.582-1.705l.198-.262 2.41-2.95h5.932a3.965 3.965 0 0 0 3.778-2.622l.065-.131c0-.065.067-.196.067-.263h-7.3l4.954-5.899c.13-.196.324-.392.455-.59l.13-.131.131-.13.13-.133.065-.13.131-.132.065-.065.065-.065.13-.065c.26-.197.651-.262.977-.262h.067v15.6h4.104V18.394zm66.017.262c-1.303-.394-3.258-.656-5.474-.656-2.02 0-3.845.198-5.082.59a6.59 6.59 0 0 0-5.148 6.424v5.572c0 3.406 2.54 6.16 5.865 6.554 1.238.262 2.736.393 4.43.393 1.695 0 3.258-.132 4.497-.458 3.193-.394 5.67-3.148 5.67-6.49v-5.571c-.065-3.016-2.02-5.573-4.758-6.358m.652 11.01a4.44 4.44 0 0 1-1.89 3.606c-.846.656-2.411 1.114-4.236 1.114s-3.388-.457-4.236-1.113c-1.173-.786-1.89-2.097-1.89-3.606V25.93c0-1.638.914-3.014 2.216-3.802.913-.523 2.28-.85 3.91-.85 1.629 0 2.999.327 3.911.85a4.35 4.35 0 0 1 2.215 3.802zm-48.42-5.11v12.519h4.103V18.459a6.58 6.58 0 0 0-4.103 6.096M81 18.656c-1.304-.395-3.26-.656-5.476-.656-2.02 0-3.845.198-5.084.59a6.59 6.59 0 0 0-5.148 6.424v5.572c0 3.406 2.542 6.16 5.865 6.554 1.238.262 2.738.393 4.432.393s3.258-.132 4.496-.458c3.194-.394 5.67-3.147 5.67-6.49v-5.571A6.62 6.62 0 0 0 81 18.656m.651 11.01a4.44 4.44 0 0 1-1.89 3.607c-.848.654-2.412 1.113-4.236 1.113-1.825 0-3.39-.457-4.235-1.113-1.174-.786-1.89-2.097-1.89-3.606V25.93c0-1.638.912-3.014 2.215-3.802.912-.523 2.281-.85 3.91-.85s2.998.327 3.91.85a4.36 4.36 0 0 1 2.216 3.802z"/></svg>