<svg xmlns="http://www.w3.org/2000/svg" width="130" height="70" fill="none" viewBox="0 0 130 70"><g fill="#000" clip-path="url(#svgo-arban-clip0_1336_3188)"><g fill-rule="evenodd" clip-path="url(#svgo-arban-clip1_1336_3188)" clip-rule="evenodd"><path d="M45.092 49.025c-6.218-5.373-8.067-7.521-9.987-9.765-1.779-2.071-1.972-3.692-1.373-6.714.985-4.978 2.536-9.6 3.145-11.25-.44 2.485-1.135 6.87-1.515 10.415-.334 3.071.493 5.39 2.163 7.679 2.945 4.051 4.263 5.978 7.567 9.627zm-.307.633c-4.624-3.41-8.728-5.371-11.071-6.517-2.22-1.091-4.685-.975-6.457-.774C16.84 43.565 9.347 45.41.05 47.757c9.547-3.146 22.063-7.003 28.64-7.885 1.533-.204 3.741.036 5.619 1.17 4.313 2.6 7.483 5.707 10.473 8.624l.004-.007zM27.946 37.536C21.981 40.48 9.677 44.624 0 47.33c9.029-3.24 20.97-8.49 23.968-10.093 2.995-1.6 5.415-3.533 6.835-5.777 1.43-2.244 3.438-5.26 5.417-10.685-.887 4.094-2.056 7.905-4.227 12.478-.944 1.99-2.652 3.6-4.04 4.283z"/></g><path d="M66.275 39.233H64.73V36.76H53.106v2.473h-1.53v-5.768q0-1.902 1.843-1.903h11.005q1.849 0 1.85 1.92zm-13.166-4.006h11.62V33.7q0-.608-.612-.607H53.72c-.406 0-.615.207-.615.628v1.506zm26.932-2.134h-11.01v2.165l11.034-.017q.556 0 .564-.609v-.942q.005-.596-.588-.597m-11.01 3.701v2.435h-1.544v-7.67h12.831q1.88 0 1.881 1.823v1.514q0 1.9-1.864 1.9H69.03zm29.1.553q0 1.881-1.875 1.882H83.421v-7.67h14.71v1.53H84.965v1.543h11.291q1.876 0 1.878 1.814v.897zm-13.166.349H95.98q.631 0 .632-.625v-.31q-.002-.597-.638-.598H84.96v1.529zm29.114 1.53h-1.543v-2.473h-11.623v2.472h-1.53V33.46q0-1.901 1.845-1.902h11.004q1.85-.001 1.85 1.919v5.75zm-13.166-4.006h11.623v-1.527q0-.608-.615-.607h-10.397c-.406 0-.614.208-.614.628v1.506zM130 39.225h-1.533v-3.062h-11.646v3.062h-1.52V31.57h1.52v3.062h11.646V31.57H130z"/></g><defs><clipPath id="svgo-arban-clip0_1336_3188"><rect width="130" height="70" fill="#fff"/></clipPath><clipPath id="svgo-arban-clip1_1336_3188"><rect width="45.482" height="29.238" fill="#fff" transform="translate(0 20.7754)"/></clipPath></defs></svg>