<svg xmlns="http://www.w3.org/2000/svg" width="130" height="70" fill="none" viewBox="0 0 130 70"><path fill="#000" d="M30.97 8 25 50.74h6.314l1.657-12.101.03-.32.188-1.473.032 2.017.03.64.532 11.238h6.283l-1.72-15.656 5.565-13.607h-6.002l-3.75 10.406-.157.384-.406 1.408.218-1.536.063-.353L37.097 8zm35.29 13.415-8.69 29.262h6.033l1.375-5.7h2.532l-.625 5.7h5.97l1.625-29.263zm-20.474.064L41.473 50.74h5.5l2.001-13.415.25-1.889-.03 1.473.03.352.594 13.479h6.002l4.313-29.262h-5.126L53.132 33.58l-.282 1.857.032-1.472-.032-.353-.406-12.134zm39.384 0-6.283.032c-1.376 8.789-2.041 14.387-3.375 21.77-.034.209-.08.43-.125.704-.09.568-.118.613-.22 1.441-.088.737-.12 1.287 0 2.017.116.702.206 1.103.563 1.697.31.503.564.767 1.032 1.12.484.367.83.505 1.407.737.585.236 1.6.358 2.5.416 1.193.078 2.4.03 3.47-.128 1.181-.173 2.128-.49 2.844-.992.764-.533 1.433-1.153 1.813-1.985.278-.605.504-1.32.656-2.274.322-2.013.003.01.313-2.016l3.47-22.507h-6.19l-3.594 23.083s-.034.435-.094.704c-.066.309-.057.528-.219.8-.097.16-.158.248-.312.353a.78.78 0 0 1-.5.16c-.234.002-.393-.096-.563-.256-.182-.173-.235-.327-.281-.577-.045-.226 0-.576 0-.576l.125-.672zm10.565 0-5.97 39.987h6.377l3.844-24.652h3.563l.719-4.866h-3.657l.813-5.827h3.751l.625-4.643zm-25.912 3.297-.313 2.241-.093.576-1.345 12.487h-1.906l3.032-12.582.125-.545z"/></svg>