<svg xmlns="http://www.w3.org/2000/svg" width="130" height="70" fill="none" viewBox="0 0 130 70"><g fill="#000" clip-path="url(#svgo-krsk-sbit-clip0_1343_3451)"><path d="M0 55.482v-7.936h1.475v3.444l2.478-3.444h1.761l-2.992 3.906 2.988 4.03H3.953l-2.478-3.475v3.474zm6.526 1.984V49.54h1.315v.773h.021q.27-.44.776-.703.507-.261 1.141-.26 1.253 0 2.12.877.875.88.875 2.285c0 .865-.275 1.608-.816 2.23q-.82.934-2.179.934-.524 0-.994-.198a1.95 1.95 0 0 1-.803-.64H7.96v2.626zM9.628 50.7q-.785.01-1.27.521-.485.51-.485 1.292 0 .835.474 1.324.474.487 1.23.486.762 0 1.257-.512c.333-.346.502-.779.508-1.31q-.01-.771-.489-1.286t-1.225-.516m9.952-1.158v5.941h-1.316v-.802h-.022q-.377.503-.896.743a2.7 2.7 0 0 1-1.095.254q-1.196 0-2.057-.858-.863-.858-.862-2.254 0-1.383.856-2.302a2.77 2.77 0 0 1 2.104-.913 2.4 2.4 0 0 1 1.128.26q.499.264.821.767h.023v-.838h1.317zM16.52 50.7q-.775 0-1.265.53-.49.532-.49 1.336-.009.771.48 1.265c.325.33.753.493 1.275.493.512 0 .921-.167 1.238-.501q.475-.505.475-1.32 0-.773-.475-1.287c-.317-.343-.726-.516-1.238-.516m8.595 2.851h1.616q-.355.977-1.116 1.551-.758.572-1.836.572-1.42 0-2.357-.898-.937-.901-.936-2.308-.002-1.33.92-2.225.92-.896 2.32-.895 1.109 0 1.906.59.795.59 1.1 1.577h-1.617a1.47 1.47 0 0 0-.575-.601 1.8 1.8 0 0 0-.836-.214q-.828 0-1.307.52-.48.52-.48 1.27 0 .795.49 1.319.49.528 1.297.514.455 0 .824-.185.37-.189.587-.587m2.521-4.01h1.433v2.188h2.22V49.54h1.431v5.94h-1.432v-2.487H29.07v2.488h-1.433zm9.11-.191q1.346 0 2.26.933a3.1 3.1 0 0 1 .907 2.239q-.002 1.321-.908 2.236-.913.921-2.26.92-1.354.001-2.26-.92-.907-.915-.905-2.236-.001-1.307.904-2.239.907-.933 2.262-.932m0 1.349c-.518 0-.933.178-1.254.536q-.478.536-.48 1.286-.01.753.475 1.278c.325.349.742.523 1.26.523q.764.012 1.25-.518a1.84 1.84 0 0 0 .484-1.284q0-.75-.484-1.285-.485-.536-1.251-.536m8.682-1.16v5.944h-1.432V53.2l-1.769 2.285h-1.792l1.801-2.102q-.729-.076-1.156-.601-.423-.527-.423-1.266 0-.806.583-1.385.58-.579 1.592-.59zm-1.432 2.757v-1.49h-1.11q-.375-.001-.587.217-.21.211-.209.567 0 .31.21.51.21.196.587.197zm2.594 5.169V49.54h1.314v.773h.02a1.93 1.93 0 0 1 .777-.703q.505-.261 1.14-.26 1.25 0 2.122.877.873.88.874 2.285-.001 1.297-.82 2.23-.818.934-2.175.934-.526 0-.996-.198a1.97 1.97 0 0 1-.803-.64h-.02v2.626zm3.1-6.766q-.787.01-1.27.521-.485.51-.485 1.292-.002.835.474 1.324.473.487 1.229.486.762 0 1.258-.512c.33-.346.501-.779.507-1.31q-.011-.771-.489-1.286-.482-.515-1.224-.516m8.382 2.852h1.616q-.358.977-1.114 1.551-.764.572-1.838.572-1.42 0-2.36-.898-.937-.901-.936-2.308-.002-1.33.922-2.225.92-.896 2.319-.895 1.108 0 1.907.59.795.59 1.1 1.577h-1.616a1.5 1.5 0 0 0-.577-.601 1.8 1.8 0 0 0-.834-.214q-.829 0-1.31.52a1.8 1.8 0 0 0-.48 1.27q.001.795.49 1.319.492.528 1.3.514.454 0 .822-.185c.246-.127.445-.32.589-.587m2.518 1.931V49.54h1.434v2.725l2.133-2.725h1.708l-2.383 2.788 2.502 3.153h-1.807l-2.153-2.851v2.85zm5.45-1.93h1.616q.192.397.554.585.362.186.846.186.655.012 1.099-.316.441-.329.612-.864h-2.464v-1.265h2.464a1.62 1.62 0 0 0-.603-.852q-.442-.327-1.088-.327a1.8 1.8 0 0 0-.845.202 1.3 1.3 0 0 0-.576.613H66.04a3 3 0 0 1 1.088-1.573q.799-.593 1.928-.594 1.378-.002 2.304.891.928.89.927 2.23 0 1.405-.947 2.308-.95.897-2.338.898-1.077 0-1.852-.572-.776-.574-1.11-1.55m7.152-4.011h1.433v2.188h2.219V49.54h1.432v5.94h-1.432v-2.487h-2.22v2.488h-1.432zm12.2 3.603h-4.674q.131.547.555.864.427.316 1.008.315.427.014.772-.134a1.46 1.46 0 0 0 .564-.421h1.615a3.1 3.1 0 0 1-1.143 1.4q-.765.506-1.756.507-1.343 0-2.25-.898c-.602-.603-.904-1.34-.904-2.222q0-1.319.908-2.261.911-.943 2.268-.945 1.346.001 2.202.91.858.913.866 2.253c0 .145-.002.262-.01.36zm-4.695-1.265h3.233a1.55 1.55 0 0 0-.583-.863 1.63 1.63 0 0 0-.991-.317 1.8 1.8 0 0 0-1.038.327q-.45.317-.62.852m5.631 5.588V49.54h1.314v.773h.022q.268-.44.774-.703.509-.261 1.142-.26c.835 0 1.539.292 2.123.877q.872.88.873 2.285-.001 1.297-.82 2.23-.818.934-2.176.934-.527 0-.994-.198a2 2 0 0 1-.805-.64h-.02v2.626zM89.43 50.7q-.787.01-1.271.521-.484.51-.484 1.292 0 .835.473 1.324.473.487 1.23.486.763 0 1.258-.512c.332-.346.501-.779.506-1.31q-.01-.771-.488-1.286-.481-.515-1.224-.516m4.008-1.158h3.38v1.266H94.87v4.675h-1.433zm6.957-.191q1.346 0 2.258.933.909.931.909 2.239 0 1.321-.909 2.236-.912.921-2.258.92-1.358.001-2.261-.92-.906-.915-.906-2.236 0-1.307.906-2.239c.6-.622 1.357-.932 2.261-.932m0 1.349q-.776 0-1.256.536a1.87 1.87 0 0 0-.479 1.286q-.01.753.474 1.278.485.523 1.261.523.765.012 1.25-.518a1.84 1.84 0 0 0 .485-1.284c0-.499-.162-.93-.485-1.285q-.485-.536-1.25-.536m8.399 2.851h1.618q-.356.977-1.117 1.551-.757.572-1.836.572-1.42 0-2.361-.898-.934-.901-.935-2.308 0-1.33.923-2.225.919-.896 2.318-.895 1.11 0 1.907.59t1.101 1.577h-1.618a1.5 1.5 0 0 0-.575-.601 1.76 1.76 0 0 0-.835-.214q-.829 0-1.31.52-.477.52-.478 1.27 0 .795.49 1.319.49.528 1.298.514.451 0 .824-.185a1.4 1.4 0 0 0 .586-.587m8.316-6.005v1.266l-2.315.044q-1.13.017-1.772.498-.642.475-.77 1.368h.02q.367-.517.937-.805c.383-.196.818-.29 1.315-.29q1.238 0 2.034.793.799.794.798 2.093 0 1.391-.894 2.279-.892.881-2.325.882-1.54.001-2.326-.94-.787-.945-.787-2.768-.014-2.018.92-3.176.932-1.157 2.883-1.2zm-2.886 3.346q-.743 0-1.222.473-.479.471-.479 1.243-.002.794.462 1.256.462.46 1.239.46.765 0 1.228-.47.462-.475.473-1.246-.011-.794-.478-1.254-.47-.461-1.223-.462m3.984-1.351h1.433v2.083h1.282q.882 0 1.442.509.562.508.561 1.42-.01.9-.567 1.416-.555.515-1.436.516h-2.715zm1.433 3.346v1.332h1.131q.343.009.532-.174.188-.18.188-.493a.64.64 0 0 0-.182-.477q-.184-.176-.538-.188zm3.942-3.346h1.434v5.94h-1.434zm2.121 0H130v1.266h-1.431v4.675h-1.432v-4.675h-1.433zM64.246 13a14.7 14.7 0 0 0-3.05.363 13.9 13.9 0 0 0-7.134 4.249c-1.368 1.537-2.447 3.373-3.048 5.38.456-.918 1.12-1.708 1.866-2.391 1.265-1.175 2.738-2.05 4.231-2.861.701-.361 1.41-.71 2.117-1.057 1.511-.743 3.024-1.487 4.478-2.36l.232-.148c.38-.241.754-.478 1.013-.833.041-.086.041-.214-.062-.257-.187-.085-.436-.085-.643-.085m7.943 3.053c-.187-.555-.684-.94-1.14-1.26 1.824 1.004 3.421 2.456 4.666 4.142.954 1.345 1.7 2.84 2.095 4.441l.04.167c.096.402.198.83.126 1.242-.084.534-.374 1.025-.706 1.43a7.7 7.7 0 0 1-1.306 1.175c-1.39 1.003-2.925 1.772-4.439 2.52-1.663.825-3.368 1.562-5.07 2.299q-1.014.437-2.023.881l-.432.19c-1.87.811-3.745 1.625-5.478 2.715l-.074.051c-.599.41-1.209.828-1.647 1.443-.249.363-.415.854-.249 1.303.204.565.707.926 1.176 1.262l.027.019a14.1 14.1 0 0 1-4.418-3.78c-1.099-1.451-1.95-3.095-2.405-4.888l-.023-.096c-.098-.419-.2-.856-.123-1.292.063-.491.311-.94.602-1.324.394-.512.892-.918 1.41-1.302 1.683-1.21 3.544-2.095 5.39-2.972l.127-.06c1.315-.62 2.648-1.194 3.987-1.77q1.033-.444 2.07-.899.511-.232 1.025-.462c1.636-.732 3.276-1.466 4.802-2.42.622-.427 1.265-.875 1.721-1.494.25-.342.436-.833.27-1.26"/><path d="M77.664 31.895c-.477.96-1.182 1.75-1.97 2.455-1.224 1.067-2.613 1.921-4.044 2.69-.754.391-1.516.765-2.28 1.14-1.485.728-2.974 1.458-4.399 2.319l-.193.121c-.379.235-.765.475-1.03.84-.063.085-.063.213.041.256.208.106.436.106.643.106 2.136 0 4.273-.512 6.18-1.494 3.32-1.687 5.932-4.804 7.052-8.433M68.02 13.662c-1.016-.214-1.618-.164-2.55.29-.217.159-.399.318-.573.47-.212.185-.412.36-.65.513.082.233.087.294.118.339.03.045.087.073.275.245.684.598 1.43 1.089 2.198 1.537l.404.236c.815.478 1.25.732 2.24 1.195.622-.427 1.265-.875 1.72-1.494.25-.342.32-.793.155-1.22-.396-.697-1.055-1.25-1.54-1.5-.336-.173-.76-.376-1.796-.611m-16.467 9.92c.456-.919 1.12-1.709 1.866-2.392 1.265-1.153 2.738-2.028 4.231-2.84.348.307.517.372.74.457.148.057.32.123.587.278 1.423.837 2.27 1.207 3.526 1.756.282.124.585.256.92.405q-.782.34-1.57.677c-1.501.646-3.011 1.295-4.487 1.991l-.7.34c-1.608.774-3.077 1.483-4.582 2.547l-.042.021q-.145-.127-.25-.216c-.304-.258-.406-.344-.574-.776-.29-.747 0-1.576.335-2.249"/><path d="M76.484 27.799c-1.39 1.003-2.66 1.789-4.174 2.536-1.683.835-3.325 1.54-5.009 2.262q-.96.41-1.944.841l-.062.043c1.317.568 1.939.9 3.02 1.479l.576.308q.233.128.436.235c.678.363 1.147.614 1.804 1.237.041-.021.083-.043.104-.043 1.41-.768 2.8-1.622 4.023-2.69.788-.683 1.493-1.494 1.97-2.455l.09-.176c.153-.301.298-.584.35-.924l.01-.055c.098-.588.163-.972-.16-1.449-.156-.232-.7-.886-1.034-1.15M57.286 39.072c-.166-.448-.02-.94.25-1.302.455-.62 1.098-1.067 1.72-1.473 1.026.486 1.585.838 2.38 1.339.218.137.454.286.722.451l.316.197c.389.24.556.343 1.01.758.332.299.643.64.809 1.089-.436.277-1.14.792-1.45 1.22-.893.085-1.058.067-1.93-.083a10.4 10.4 0 0 1-2.624-.915c-.477-.32-.995-.704-1.203-1.28"/></g><defs><clipPath id="svgo-krsk-sbit-clip0_1343_3451"><rect width="130" height="70" fill="#fff"/></clipPath></defs></svg>