<svg xmlns="http://www.w3.org/2000/svg" width="130" height="70" fill="none" viewBox="0 0 130 70"><g fill="#000" clip-path="url(#svgo-malltech-clip0_1337_3194)"><path fill-rule="evenodd" d="M95.374 33.132c0 6.516 3.267 10.132 8.707 10.132 4.576 0 7.627-2.9 8.059-7.96h-1.741c-.432 3.616-2.619 6.516-6.318 6.516-4.36 0-6.966-3.615-6.966-8.688 0-5.06 2.835-8.689 6.966-8.689 3.051 0 5.44 2.172 6.102 5.06h1.741c-.432-4.331-4.131-6.503-7.843-6.503-5.656 0-8.707 5.06-8.707 10.132m19.601-9.417v19.549h1.742v-9.417h11.542v9.417H130v-19.55h-1.741v8.69h-11.542v-8.69zM93.632 43.264v-1.458H82.09v-7.96h10.678v-1.443H82.09v-7.231h11.326v-1.457H80.35v19.549zm-21.774 0V25.172h.432v-1.457h-8.923v1.457H69.9v18.092z" clip-rule="evenodd"/><path d="M78.58 23.715h-6.724v1.457h6.724z"/><path fill-rule="evenodd" d="M65.756 44.707H55.09V27.344h-1.74V46.15h12.406zM51.392 46.15v-1.443H40.944V27.344h-1.971V46.15zM28.74 28.787l3.7 10.132h-7.628zm8.492 17.364-7.398-18.807H27.66L20.033 46.15h1.958l2.389-5.787h8.707l2.174 5.787zm-18.724-.001V27.345h-2.39L10.664 41.09c-.431.729-.877 2.172-1.309 3.616-.432-1.444-.877-2.887-1.31-3.616L2.62 27.344H0V46.15h1.741c0-4.345.216-13.02-.216-17.364.432 1.444.864 2.172 1.31 3.616L8.49 46.15h1.742l5.44-13.748c.432-1.444.864-2.9 1.31-3.616-.433 4.345-.217 13.02-.217 17.364z" clip-rule="evenodd"/></g><defs><clipPath id="svgo-malltech-clip0_1337_3194"><rect width="130" height="23.151" fill="#fff" transform="translate(0 23)"/></clipPath></defs></svg>