<svg xmlns="http://www.w3.org/2000/svg" width="130" height="70" fill="none" viewBox="0 0 130 70"><path fill="#000" fill-rule="evenodd" d="M97.369 39.644h9.588L88.455 55.953H77.153L94.37 40.776a4.54 4.54 0 0 1 2.998-1.132M97.515 14h7.557c.655 0 .961.81.469 1.244l-46.13 40.533a.7.7 0 0 1-.469.176h-9.15c-.654 0-.96-.81-.469-1.244l44.934-39.48A4.93 4.93 0 0 1 97.515 14m-28.371 0h8.602c.38 0 .557.47.271.72L31.093 55.953h-9.358a.733.733 0 0 1-.484-1.283l45.077-39.608A4.27 4.27 0 0 1 69.144 14" clip-rule="evenodd"/><path fill="#000" fill-rule="evenodd" d="m106.999 54.941-.056 1.012H85.518l.056-1.012h12.917c2.153 0 3.9-1.743 3.902-3.897l.05-37.044h3.361c.66 0 1.194.535 1.194 1.195l-.053 39.746H107zm-28.119 0-.056 1.012H29.28l.056-1.012h40.998a3.94 3.94 0 0 0 3.94-3.933L74.323 14h3.3c.694 0 1.256.564 1.255 1.258l-.053 39.683z" clip-rule="evenodd"/></svg>