<svg xmlns="http://www.w3.org/2000/svg" width="130" height="70" fill="none" viewBox="0 0 130 70"><path fill="#000" d="M89.654 36.604c1.366-3.206 2.697-6.307 2.733-6.391.078-.176.216-.255.431-.278.097-.008.32-.012.547-.012.214 0 .432.004.508.012.19.027.361.111.439.313.334.897 1.47 3.605 2.636 6.356zm9.17-7.836c-1.34-3.057-.836-2.719-3.793-2.82-.27-.01-.864-.021-1.747-.023-.885 0-1.117.006-1.792.019-2.783.048-2.347-.14-3.3 1.84.002 0-4.784 10.778-6.86 15.259l-.094.19c-.39.757-.104.784.515.784l4.338-.003a.58.58 0 0 0 .529-.317s.596-1.403 1.416-3.3h10.53a868 868 0 0 0 1.407 3.289c.092.21.293.337.529.337l4.47-.007c.664 0 .807.084.553-.509-.796-1.864-5.957-13.03-6.701-14.739m-67.348-2.83h-4.39c-.347 0-.445.167-.445.462v17.066c0 .47.108.551.59.551h4.158c.467 0 .565-.109.565-.55V26.41c0-.334-.106-.472-.478-.472m-9.83-.005h-3.592c-.478 0-.565.11-.565.555l-.002 13.513S10.265 28.894 9.329 27.46c-1.085-1.657-1.47-1.548-4.611-1.548-3.147 0-4.15.021-4.15.021-.48.003-.568.11-.568.55l.01 16.983c0 .46.103.553.568.553l3.599-.002c.486 0 .578-.108.578-.55L4.75 30.146s5.933 9.203 7.933 12.295c1.011 1.565 1.191 1.575 4.1 1.577l4.862-.002c.474 0 .575-.088.575-.554V26.486c0-.447-.085-.553-.576-.553m107.376 0h-3.588c-.477 0-.567.11-.567.555l-.002 13.513s-7.211-11.107-8.154-12.541c-1.084-1.657-1.466-1.548-4.616-1.548-3.138 0-4.148.021-4.148.021-.477.003-.567.11-.567.55l.01 16.983c.001.46.103.553.568.553l3.6-.002c.486 0 .575-.108.575-.55l-.004-13.322s5.934 9.203 7.935 12.295c1.011 1.565 1.187 1.575 4.105 1.577l4.855-.002c.475 0 .577-.088.577-.554V26.486c0-.447-.086-.553-.579-.553M50.334 32.87c-1.73-.168-6.46-.611-8.01-.75-.568-.055-.726-.38-.773-.746a3 3 0 0 1-.021-.407c0-.166.007-.254.021-.378.052-.512.32-.722.873-.722l12.82.002c.466.002.583-.086.583-.557v-2.875c0-.436-.134-.511-.581-.513h-13.02c-3.39 0-5.303 1.222-5.825 3.75-.115.567-.14 1.26-.14 1.749 0 .592.039 1.2.104 1.669.202 1.45 1.093 3.152 4.996 3.531 3.102.303 7.564.674 9.063.802.68.057.8.564.843.849q.026.165.026.489c0 .191 0 .393-.026.672-.035.4-.22.59-.751.59H36.918c-.476 0-.574.097-.574.557v2.866c0 .465.113.558.571.558h13.426c3.325 0 5.502-.556 6.087-3.408.124-.602.147-1.39.147-1.942 0-.852-.059-1.617-.116-1.902-.6-2.992-2.882-3.57-6.125-3.884m23.562 0c-1.733-.168-6.46-.611-8.011-.75-.567-.055-.727-.38-.775-.746-.015-.163-.015-.298-.015-.407 0-.166.008-.254.015-.378.054-.512.319-.722.885-.722l12.816.002c.46.002.575-.086.575-.557v-2.875c0-.436-.132-.511-.575-.513H65.788c-3.39 0-5.304 1.222-5.824 3.75-.115.567-.14 1.26-.14 1.749 0 .592.037 1.2.102 1.669.205 1.45 1.093 3.152 4.993 3.531 3.102.303 7.57.674 9.068.802.675.057.8.564.843.849q.024.165.024.489c0 .191 0 .393-.024.672-.036.4-.22.59-.75.59h-13.6c-.48 0-.573.097-.574.557l.002 2.866c-.002.465.113.558.57.558h13.423c3.326 0 5.5-.556 6.088-3.408.12-.602.148-1.39.148-1.942 0-.852-.061-1.617-.12-1.902-.601-2.992-2.88-3.57-6.121-3.884"/></svg>