<svg xmlns="http://www.w3.org/2000/svg" width="130" height="70" fill="none" viewBox="0 0 130 70"><path fill="#000" d="M19.439 29.176 13.263 23v3.087A9.263 9.263 0 0 0 4 35.352a9.23 9.23 0 0 0 2.714 6.55l4.367-4.367a3.088 3.088 0 0 1 2.182-5.27v3.087zM9.147 41.526l6.176 6.176v-3.087A9.263 9.263 0 0 0 21.872 28.8l-4.367 4.367a3.087 3.087 0 0 1-2.182 5.27v-3.086zm116.851-4.32v7.401h-2.28v-3.735l-2.223 3.735h-2.028v-7.415h2.28v3.686l2.193-3.686 2.06.014zm-7.032 0h-2.478l-1.978 2.488v-2.488h-2.28v7.401h2.28v-2.382l.407-.48 1.408 2.862h2.619l-2.497-4.51zm-9.748-.014-2.193 3.686v-3.686h-2.28v7.415h2.028l2.223-3.735v3.735h2.28v-7.401l-2.06-.014zm-6.592 0h-1.862a.46.46 0 0 0-.444.35l-.756 3.183-.756-3.184a.456.456 0 0 0-.443-.349h-1.862a.46.46 0 0 0-.45.379l-1.172 7.036h2.413l.538-2.96.717 2.624a.455.455 0 0 0 .44.334h1.153a.46.46 0 0 0 .44-.334l.716-2.623.538 2.959h2.414l-1.172-7.036a.456.456 0 0 0-.45-.379zm-10.504 5.962h-2.133l-.345 1.453h-2.412l1.995-6.97a.62.62 0 0 1 .595-.445h2.473a.62.62 0 0 1 .595.446l1.993 6.969h-2.411l-.348-1.453zm-1.165-4.222-.543 2.398h1.28l-.55-2.398zM84.65 39.99h-1.974v-2.8h-2.28v7.415h2.28v-2.702h1.974v2.702h2.28V37.19h-2.28zm-7.663-2.8-2.193 3.686V37.19h-2.28v7.415h2.029l2.223-3.735v3.735h2.28v-7.401zm-5.86 5.522V37.19h-3.685c-.509 0-.929.2-1.26.505a1.8 1.8 0 0 0-.574 1.174c-.165 1.579-.375 3.042-.803 3.843h-.617v1.893h7.662v-1.893zm-4.033 0s.206-.497.334-1.059c.13-.561.236-1.223.336-2.191q.043-.513.493-.513h.54v3.763h-1.705zm-3.15-1.816c0 3.352-1.34 3.83-3.452 3.83s-3.452-.478-3.452-3.83 1.341-3.832 3.452-3.832 3.452.503 3.452 3.832m-2.313 0c0-1.784-.442-2.053-1.137-2.053s-1.137.216-1.137 2.053.442 2.052 1.137 2.052 1.137-.256 1.137-2.052m-5.086-1.041c0 2.323-1.33 2.653-3.09 2.653-.287 0-.692-.018-.692-.018v2.144h-2.172v-7.432h2.643c2.072 0 3.31.347 3.31 2.653zm-2.339 0c0-.9-.324-1.037-.936-1.037-.287 0-.505.02-.505.02v2.024s.218.026.505.026c.577 0 .936-.13.936-1.037zm-4.95 2.855v-5.522H45.57c-.509 0-.929.2-1.26.505a1.8 1.8 0 0 0-.574 1.174c-.165 1.579-.375 3.042-.803 3.843h-.617v1.893h7.663V42.71zm-4.034 0s.207-.497.334-1.058c.13-.562.236-1.224.336-2.192q.043-.513.493-.512h.54v3.762H45.22zm-5.45-5.522-2.194 3.686v-3.686h-2.28v7.415h2.028l2.223-3.735v3.735h2.28v-7.401l-2.06-.014zm-8.706 0c-.729 0-1.318.585-1.318 1.308v6.107h2.282v-5.5h2.266l.344-1.913h-3.574zm94.932-11.099v7.401h-2.28v-3.735l-2.323 3.735h-2.028v-7.415h2.279v3.686l2.292-3.686zm-2.839-1.751q-.14.176-.472.176c-.332 0-.391-.059-.483-.176q-.139-.176-.074-.647h-1.363q-.13.717.418 1.28.548.566 1.502.566c.954 0 1.137-.188 1.502-.565q.548-.565.409-1.28h-1.363q.064.468-.075.646zm-8.378 1.614c-2.111 0-3.452.404-3.452 3.83s1.341 3.832 3.452 3.832 3.452-.48 3.452-3.831-1.341-3.831-3.452-3.831m0 5.883c-.695 0-1.137-.255-1.137-2.052s.442-2.052 1.137-2.052 1.137.269 1.137 2.052-.442 2.052-1.137 2.052m-6.865-2.96h-2.37v-2.8h-2.28v7.415h2.28v-2.702h2.37v2.702h2.28v-7.415h-2.28zm-12.348-2.8.344 1.913h1.96v5.5h2.282V27.99h2.067l.344-1.913H95.57zm-2.68 0-2.392 3.686v-3.686h-2.28v7.415h2.029l2.423-3.735v3.735h2.28v-7.4zm-8.336 2.8h-2.37v-2.8h-2.28v7.415h2.28v-2.702h2.37v2.702h2.28v-7.415h-2.28zm-9.42-2.8c-.729 0-1.318.586-1.318 1.308v6.107h2.282v-5.5h2.763l.344-1.913H75.13zM70.8 33.49h2.411l-1.993-6.969a.62.62 0 0 0-.595-.446h-2.472a.62.62 0 0 0-.595.446l-1.995 6.97h2.411l.346-1.454h2.132l.348 1.453zm-1.324-5.673.55 2.398h-1.28l.544-2.398zm-5.816-1.742h-1.862a.456.456 0 0 0-.444.35l-.756 3.183-.756-3.183a.456.456 0 0 0-.444-.35h-1.861a.46.46 0 0 0-.45.38l-1.172 7.035h2.413l.538-2.959.717 2.624a.455.455 0 0 0 .44.333h1.153a.46.46 0 0 0 .44-.333l.716-2.624.538 2.96h2.414l-1.173-7.037a.456.456 0 0 0-.45-.379zm-11.362 6.37v1.059h-6.386a.854.854 0 0 1-.857-.85V26.09h1.393v6.354h3.391V26.09h1.392v6.354zM42.165 27.15v6.355h1.392V26.94c0-.47-.385-.85-.856-.85h-4.518a.854.854 0 0 0-.857.85v6.563h1.393v-6.355zm-7.733 2.12H31.14v-3.18h-1.393v7.413h1.393v-3.177h3.29v3.177h1.393V26.09h-1.392z"/></svg>