<svg xmlns="http://www.w3.org/2000/svg" width="130" height="70" fill="none" viewBox="0 0 130 70"><path fill="#000" d="M67.903 9.99a17 17 0 0 0-1.38-1.522c.076.103.115.163.115.167-4.418 1.939-7.82 6.327-9.611 12.31-1.488 4.915-3.697 6.71-4.41 7.18a16.1 16.1 0 0 0-4.39-7.02 15.46 15.46 0 0 0-7.221-3.806c1.807-4.42 4.793-8.222 8.611-10.97l.018-.009-.016.008C54.641 2.47 60.844.602 67.094 1.063s12.13 3.222 16.567 7.778a28 28 0 0 1 1.55 1.78l-.326.358c-2.487 2.667-5.825 4.321-9.402 4.66h-.441a16 16 0 0 1-3.922-.28 22.2 22.2 0 0 0-3.217-5.369"/><path fill="#000" d="M66.523 33.22a5.4 5.4 0 0 0 2.705-1.63 5.6 5.6 0 0 0 1.12-1.886 5.74 5.74 0 0 0-.206-4.328 5.6 5.6 0 0 0-1.293-1.764 5.36 5.36 0 0 0-2.847-1.351 5.3 5.3 0 0 0-3.098.496 5.5 5.5 0 0 0-2.314 2.177 5.7 5.7 0 0 0-.758 3.13 5.7 5.7 0 0 0 1.051 3.04 5.44 5.44 0 0 0 2.51 1.935 5.3 5.3 0 0 0 3.13.181"/><path fill="#000" d="M48.178 35.849c.155-.638.349-1.245.55-1.827a22.4 22.4 0 0 1 2.899-5.585 17.4 17.4 0 0 0-1.729-3.638l-.124-.199a1.4 1.4 0 0 0-.124-.176c-2.064-3.005-5.11-5.145-8.58-6.03l-.465-.12c-.263.75-.511 1.5-.72 2.281a27.6 27.6 0 0 0 1.743 18.65c2.724 5.773 7.364 10.35 13.08 12.907l.052.035a24.1 24.1 0 0 0 13.525 2.202 15.7 15.7 0 0 1-.736-4.963c-.005-4.008 1.453-7.871 4.084-10.826v-.056c-.535-.59-2.403-2.034-7.208-.91-5.916 1.394-12.443 1.23-16.252-1.727z"/><path fill="#000" d="M78.602 39.128a16 16 0 0 0 1.812-.422c.585-4.89-2.545-10.798-6.674-15.383-3.27-3.622-3.085-6.015-2.868-6.813h.062a16.5 16.5 0 0 0 3.426.375 15.1 15.1 0 0 0 6.333-1.416A15.5 15.5 0 0 0 85.9 11.5a25.86 25.86 0 0 1 4.914 13.172l-.004.068.006-.076c.73 6.394-.796 12.846-4.3 18.18s-8.753 9.193-14.79 10.876c-.73.207-1.504.367-2.28.502q-.022-.076-.052-.152a1 1 0 0 1-.079-.318 15.8 15.8 0 0 1 .775-10.69l.093-.2.1-.208a17 17 0 0 1 2.202-3.358c2.036.246 4.095.19 6.116-.168"/><path fill="#000" fill-rule="evenodd" d="M42.313 69.371h1.418v-2.154h.697c1.79 0 2.868-.805 2.868-2.37 0-1.563-1.046-2.273-2.705-2.273h-2.279zm2.193-3.406h-.775l.008-2.106h.775c.868 0 1.348.327 1.348 1.045s-.511 1.06-1.356 1.06m3.794.01c0-2.282 1.372-3.542 3.185-3.542 2.039 0 3.217 1.332 3.217 3.518 0 2.393-1.364 3.51-3.178 3.51S48.3 68.256 48.3 65.974m4.883 0c0-1.548-.69-2.234-1.72-2.234-1.032 0-1.667.718-1.667 2.234s.775 2.234 1.751 2.234 1.659-.71 1.659-2.234z" clip-rule="evenodd"/><path fill="#000" d="M59.214 69.484a3.35 3.35 0 0 0 1.782-.39l-.294-1.221a3.3 3.3 0 0 1-1.147.287c-.277 0-.551-.056-.807-.165a2.1 2.1 0 0 1-.684-.47 2.2 2.2 0 0 1-.457-.705 2.23 2.23 0 0 1 0-1.66 2.2 2.2 0 0 1 .457-.704 2.08 2.08 0 0 1 1.491-.636c.39.01.777.08 1.147.208l.31-1.245a4 4 0 0 0-1.659-.327c-2.154 0-3.488 1.268-3.488 3.606-.034.46.03.923.186 1.356.157.433.403.825.721 1.15.319.326.702.576 1.123.735.422.158.872.22 1.319.181"/><path fill="#000" fill-rule="evenodd" d="M66.174 67.553H63.36l-.643 1.818h-.86l2.518-6.797h.845l2.457 6.797h-.868zm-2.543-.798h2.271l-1.1-3.191z" clip-rule="evenodd"/><path fill="#000" d="M69.791 69.371h.845v-5.983h1.953v-.798h-4.751v.798h1.953z"/><path fill="#000" fill-rule="evenodd" d="M73.49 65.973c0-2.178 1.217-3.495 2.961-3.495 1.961 0 3.015 1.437 3.015 3.495 0 2.305-1.263 3.494-2.984 3.494-1.72 0-2.992-1.34-2.992-3.494m5.07 0c0-1.867-.776-2.68-2.109-2.68-1.163 0-2.054.86-2.054 2.68 0 1.819.868 2.68 2.163 2.68s1.968-.925 1.968-2.68z" clip-rule="evenodd"/><path fill="#000" d="M86.815 69.371h.852l-.566-6.797h-1.038l-1.744 5.84-1.783-5.84h-1.039l-.565 6.797h.852l.411-5.289 1.659 5.29h.875l1.682-5.346z"/></svg>