<svg xmlns="http://www.w3.org/2000/svg" width="130" height="70" fill="none" viewBox="0 0 130 70"><path fill="#000" d="M21.458 17c-1.24.026-2.506.156-3.72.443a17 17 0 0 0-8.706 5.184c-1.67 1.876-2.987 4.117-3.72 6.565.556-1.12 1.366-2.084 2.277-2.917 1.544-1.433 3.34-2.501 5.163-3.491.856-.44 1.72-.865 2.583-1.29 1.844-.907 3.69-1.814 5.465-2.879l.282-.18c.465-.296.92-.585 1.236-1.018.051-.104.051-.26-.076-.313-.227-.104-.531-.104-.784-.104m9.693 3.726c-.228-.678-.835-1.147-1.392-1.538 2.227 1.225 4.176 2.996 5.694 5.055 1.164 1.64 2.075 3.465 2.556 5.418l.049.204c.117.49.242 1.013.154 1.516-.102.651-.456 1.25-.86 1.745a9.3 9.3 0 0 1-1.595 1.433c-1.696 1.225-3.569 2.163-5.416 3.074-2.03 1.008-4.11 1.908-6.188 2.807q-1.237.533-2.467 1.075l-.53.23c-2.28.99-4.569 1.983-6.683 3.313l-.091.063c-.73.5-1.475 1.01-2.01 1.761-.303.443-.506 1.042-.303 1.59.248.69.862 1.129 1.435 1.539l.032.023c-2.075-1.12-3.922-2.71-5.39-4.61-1.341-1.772-2.379-3.778-2.936-5.967l-.027-.116c-.12-.512-.244-1.045-.15-1.577.076-.6.38-1.147.734-1.616.48-.625 1.088-1.12 1.72-1.589 2.054-1.477 4.326-2.556 6.578-3.626l.155-.073c1.605-.757 3.231-1.458 4.866-2.161.84-.362 1.682-.724 2.524-1.096q.625-.284 1.252-.563c1.996-.894 3.997-1.79 5.86-2.954.759-.52 1.543-1.068 2.1-1.823.303-.417.531-1.016.329-1.537"/><path fill="#000" fill-rule="evenodd" d="M46.285 26.926h-3.366c0 4.69 0 9.405.05 14.094h2.48v-5.367l.431.002c.724.003 1.463.007 2.202-.08.582-.078 1.164-.208 1.645-.52.886-.548 1.442-1.538 1.67-2.554.228-1.068.177-2.24-.278-3.257-.405-.937-1.215-1.719-2.177-2.032-.78-.236-1.603-.258-2.41-.28zm-.86 6.226v-3.725q.234 0 .47-.004c.628-.009 1.255-.017 1.883.108.532.13.962.547 1.114 1.068.177.547.151 1.199-.152 1.694a1.52 1.52 0 0 1-.911.677c-.706.187-1.433.185-2.162.183z" clip-rule="evenodd"/><path fill="#000" d="M81.944 26.926H73.82c0 4.69 0 9.405-.025 14.094H76.3V29.427h5.644zm-12.451 3.7a5.42 5.42 0 0 0-4.455.103 5.3 5.3 0 0 0-2.201 2.11c-.658 1.173-.886 2.58-.658 3.909a5.56 5.56 0 0 0 1.518 2.944 5.44 5.44 0 0 0 3.214 1.537c1.24.13 2.556-.183 3.594-.938.91-.678 1.569-1.668 1.949-2.762H69.72c-.253.39-.556.782-.961 1.042-.582.365-1.342.417-2 .26-.86-.182-1.594-.833-1.948-1.64-.608-1.355-.355-3.179.86-4.117.76-.6 1.822-.703 2.708-.39.607.208 1.063.703 1.341 1.276h2.734c-.203-.573-.43-1.172-.81-1.667a5.65 5.65 0 0 0-2.152-1.668"/><path fill="#000" fill-rule="evenodd" d="M107.859 30.208a4.06 4.06 0 0 0-2.834 1.46c0-.391 0-.808-.026-1.251h-2.227v14.12h2.43V40.03c.379.339.785.651 1.24.86 1.012.469 2.176.469 3.239.182 1.139-.312 2.151-1.094 2.784-2.136.81-1.303 1.038-2.918.785-4.403-.203-1.25-.835-2.449-1.797-3.257a4.9 4.9 0 0 0-3.594-1.068m-2.404 3.856c.405-.755 1.139-1.329 1.974-1.485s1.746.052 2.379.6c1.063.937 1.342 2.579.835 3.881-.329.886-1.063 1.59-1.949 1.798a2.89 2.89 0 0 1-2.733-.782c-1.013-1.016-1.19-2.735-.506-4.012m17.134-2.97a5.18 5.18 0 0 0-3.898-.808 5.35 5.35 0 0 0-3.214 1.98 5.56 5.56 0 0 0-1.164 3.361 5.6 5.6 0 0 0 1.139 3.517 5.3 5.3 0 0 0 3.264 2.032 5.04 5.04 0 0 0 3.417-.547 5.5 5.5 0 0 0 2.607-3.152c.379-1.172.328-2.449-.051-3.595-.379-1.12-1.114-2.136-2.1-2.788m-5.163 2.58c.405-.496.936-.886 1.543-1.043 1.088-.312 2.304.183 2.936 1.095.81 1.094.861 2.709.101 3.855-.481.782-1.316 1.329-2.226 1.355-.963.078-1.949-.47-2.481-1.303-.784-1.172-.759-2.865.127-3.96" clip-rule="evenodd"/><path fill="#000" d="M55.75 40.03c-1.19-3.204-2.353-6.382-3.518-9.587h2.48l.026.026q.464 1.356.919 2.701c.468 1.379.934 2.752 1.41 4.125.455-1.146.91-2.285 1.366-3.425l1.367-3.427h2.48q-1.205 2.92-2.404 5.837a2342 2342 0 0 1-3.417 8.284h-2.607zm24.853.99V30.444h2.43v6.904q.965-1.72 1.923-3.452c.639-1.152 1.277-2.305 1.923-3.452h2.683v10.578h-2.43v-6.904a894 894 0 0 0-2.69 4.824l-1.157 2.08z"/><path fill="#000" fill-rule="evenodd" d="M96.601 30.463c-.43-.006-.857-.012-1.295.006q-.564 1.491-1.14 2.985c-.65 1.69-1.3 3.386-1.922 5.09h-1.392v4.794h2.43v-2.292h6.023q0 .393.006.78c.005.509.01 1.01-.006 1.512h2.43v-4.793h-1.392a742 742 0 0 1-1.544-4.038 754 754 0 0 0-1.544-4.038q-.33 0-.654-.006m-.332 3.575c.505 1.485 1.012 2.97 1.493 4.48h-2.987q.378-1.114.746-2.24c.248-.749.494-1.497.748-2.24" clip-rule="evenodd"/><path fill="#000" d="M37.832 40.056c-.582 1.173-1.442 2.137-2.404 2.996-1.493 1.303-3.189 2.345-4.935 3.283-.92.477-1.85.934-2.781 1.39-1.814.89-3.63 1.78-5.368 2.83l-.237.149c-.461.286-.933.58-1.257 1.024-.075.104-.075.26.051.312.253.13.532.13.785.13 2.606 0 5.213-.625 7.541-1.823 4.05-2.058 7.239-5.862 8.605-10.29m-11.769-22.25c-1.24-.26-1.975-.2-3.112.356-.265.193-.487.387-.7.573-.257.225-.502.44-.793.625.1.284.107.36.144.414.038.055.107.09.336.3.835.729 1.746 1.328 2.683 1.875l.492.288c.995.582 1.525.893 2.733 1.458.76-.521 1.544-1.068 2.1-1.824a1.55 1.55 0 0 0 .189-1.488c-.484-.85-1.288-1.526-1.88-1.831-.41-.21-.926-.459-2.192-.745M5.97 29.912c.557-1.12 1.367-2.084 2.278-2.918 1.544-1.407 3.34-2.475 5.163-3.465.424.375.63.454.902.558.181.07.392.15.717.338 1.736 1.021 2.77 1.473 4.303 2.144.344.15.714.312 1.122.493q-.954.415-1.915.827c-1.833.788-3.675 1.58-5.475 2.43l-.855.413c-1.962.946-3.754 1.81-5.591 3.11l-.051.025c-.118-.105-.22-.19-.306-.264-.37-.315-.495-.42-.7-.947-.354-.912 0-1.923.408-2.744"/><path fill="#000" d="M36.392 35.058c-1.696 1.224-3.246 2.182-5.094 3.094-2.053 1.02-4.057 1.88-6.111 2.761-.782.336-1.571.674-2.373 1.026l-.076.052c1.608.694 2.366 1.1 3.685 1.805l.703.376q.284.155.532.287c.827.443 1.4.75 2.201 1.509a.4.4 0 0 1 .127-.052c1.72-.938 3.417-1.98 4.91-3.283.961-.833 1.822-1.823 2.404-2.996l.109-.215c.187-.367.364-.711.427-1.127l.011-.067c.121-.717.2-1.186-.193-1.768-.191-.283-.855-1.08-1.262-1.402M12.966 48.813c-.203-.547-.026-1.146.303-1.59.557-.755 1.342-1.302 2.1-1.797 1.252.593 1.935 1.023 2.905 1.634.266.168.553.349.88.55.149.095.275.172.386.24.475.294.678.42 1.232.926.405.365.785.781.987 1.329-.531.338-1.39.967-1.77 1.488-1.088.104-1.29.082-2.353-.1a12.7 12.7 0 0 1-3.203-1.117c-.582-.39-1.214-.86-1.467-1.563"/></svg>