<svg xmlns="http://www.w3.org/2000/svg" width="130" height="70" fill="none" viewBox="0 0 130 70"><path fill="#000" fill-rule="evenodd" d="M65.022 49.432h-5.801a.3.3 0 0 1-.315-.257.3.3 0 0 1 .014-.146l2.973-12.007 1.545-4.763a.12.12 0 0 0-.036-.147.1.1 0 0 0-.049-.024.2.2 0 0 0-.12.031.2.2 0 0 0-.08.093L55.745 49.16a.55.55 0 0 1-.19.23.55.55 0 0 1-.281.096h-3.407a.292.292 0 0 1-.309-.326l.989-16.948a.1.1 0 0 0-.011-.053.12.12 0 0 0-.081-.069.1.1 0 0 0-.055-.002.22.22 0 0 0-.162.17l-.842 4.764-2.974 12.007a.54.54 0 0 1-.502.402h-5.608a.308.308 0 0 1-.301-.402l5.909-23.827a.54.54 0 0 1 .182-.282.54.54 0 0 1 .312-.12h8.497a.293.293 0 0 1 .31.332l-.928 13.316 5.631-13.316a.55.55 0 0 1 .48-.333H71a.3.3 0 0 1 .163.04.3.3 0 0 1 .115.123.37.37 0 0 1 0 .364l-8.01 13.943a.41.41 0 0 0 0 .364.3.3 0 0 0 .285.162h3.909a.31.31 0 0 1 .311.258.3.3 0 0 1-.01.145l-2.186 8.8a.54.54 0 0 1-.494.403zM25.534 32.475H18.52a.3.3 0 0 1-.141-.028.3.3 0 0 1-.17-.223.3.3 0 0 1 .01-.144l.942-3.811c.29-.92.447-1.878.464-2.843-.085-.442-.51-.566-.958-.566a1.54 1.54 0 0 0-1.375.69 12 12 0 0 0-.997 2.966L13.09 41.453a10 10 0 0 0-.448 2.866c.07.504.478.666.988.666a1.46 1.46 0 0 0 1.298-.673 12.7 12.7 0 0 0 1.043-3.153l.587-2.363c.03-.11.093-.21.182-.282a.54.54 0 0 1 .312-.12h7.014a.31.31 0 0 1 .301.402l-.069.264a23.3 23.3 0 0 1-2.17 6.119 9.76 9.76 0 0 1-3.755 3.424 11.9 11.9 0 0 1-5.909 1.472 9.9 9.9 0 0 1-5.345-1.24 4.33 4.33 0 0 1-2.117-3.416 22.2 22.2 0 0 1 .92-6.623l1.923-7.746a39 39 0 0 1 1.429-4.872 9.2 9.2 0 0 1 2.1-3.098 10.5 10.5 0 0 1 3.67-2.448 12.7 12.7 0 0 1 4.704-.86 9.37 9.37 0 0 1 5.353 1.34 4.58 4.58 0 0 1 2.117 3.323c.2 1.867-.34 4.23-.834 6.197l-.356 1.449a.54.54 0 0 1-.183.277.54.54 0 0 1-.311.118M33.01 48.23c-1.081 1.294-3.314 1.611-4.68 1.603-1.368-.007-2.635-.232-3.43-1.092-1.074-1.154-.827-3.098-.418-4.802l.634-2.533q.273-1.11.664-2.185c1.545-4.198 5.53-4.175 8.806-4.167h.587a1.12 1.12 0 0 0 1.167-.93c.085-.34.17-.673.247-1.014.046-.163.077-.333.116-.504v-.054a1 1 0 0 0 .038-.14l.626-2.524a.917.917 0 0 0-.473-1.122.9.9 0 0 0-.43-.087 1.64 1.64 0 0 0-1.507 1.209l-.54 2.192a.55.55 0 0 1-.189.278c-.09.07-.2.112-.314.117h-6.18a.3.3 0 0 1-.141-.028.3.3 0 0 1-.16-.367l.31-1.255c.586-2.37 2.316-4.113 4.634-5.29a11.7 11.7 0 0 1 5.407-1.194c1.877 0 4.071.248 5.407 1.348a3.87 3.87 0 0 1 1.499 3.3 22.5 22.5 0 0 1-.448 2.998c-.34 1.696-.773 3.385-1.159 5.073l-2.965 11.97a.54.54 0 0 1-.502.403h-6.481a.3.3 0 0 1-.253-.124.3.3 0 0 1-.055-.135.3.3 0 0 1 .014-.144l.194-.775zm2.318-10.008a3.66 3.66 0 0 0-1.955.395c-.772.573-1.166 2.556-1.367 3.362l-.633 2.548a.925.925 0 0 0 .48 1.121.9.9 0 0 0 .431.088 1.64 1.64 0 0 0 1.499-1.209l.626-2.517a1 1 0 0 0 0-.201v-.07l.872-3.517zm87.976-5.747h-7.014a.303.303 0 0 1-.312-.25.3.3 0 0 1 .011-.145l.942-3.811c.291-.92.447-1.878.464-2.843-.085-.441-.51-.565-.958-.565a1.54 1.54 0 0 0-1.375.69 12 12 0 0 0-.997 2.966l-3.236 12.936a10 10 0 0 0-.448 2.866c.069.503.479.666.988.666a1.44 1.44 0 0 0 1.29-.674c.49-.999.844-2.06 1.051-3.153l.587-2.362a.54.54 0 0 1 .494-.403h7.014a.31.31 0 0 1 .311.257.3.3 0 0 1-.009.146l-.07.263a23.3 23.3 0 0 1-2.171 6.12 9.76 9.76 0 0 1-3.754 3.423 11.9 11.9 0 0 1-5.917 1.472 9.9 9.9 0 0 1-5.337-1.24 4.33 4.33 0 0 1-2.086-3.446c-.03-2.242.28-4.475.919-6.623l1.924-7.746c.37-1.654.848-3.281 1.429-4.872a9.2 9.2 0 0 1 2.101-3.099 10.5 10.5 0 0 1 3.638-2.37 12.7 12.7 0 0 1 4.704-.86 9.37 9.37 0 0 1 5.353 1.34 4.58 4.58 0 0 1 2.117 3.323c.201 1.867-.34 4.23-.834 6.197l-.356 1.448a.54.54 0 0 1-.494.395zM74.307 21.251l.116-.472a.56.56 0 0 1 .502-.403h12.66a.32.32 0 0 1 .27.147.37.37 0 0 1 0 .325l-2.162 5.206a.54.54 0 0 1-.471.333h-4.38l-5.608 22.641a.54.54 0 0 1-.185.284.54.54 0 0 1-.317.119h-6.628a.3.3 0 0 1-.166-.042.3.3 0 0 1-.112-.129.37.37 0 0 1 .039-.364l8.157-13.772a.41.41 0 0 0 .038-.364.3.3 0 0 0-.117-.128.3.3 0 0 0-.168-.042h-4.342a.3.3 0 0 1-.141-.028.3.3 0 0 1-.113-.09.3.3 0 0 1-.057-.133.3.3 0 0 1 .01-.144l3.16-12.735a.5.5 0 0 0 0-.108 1 1 0 0 1 0-.1zM92.63 44.32c.45-1.11.788-2.262 1.012-3.44l1.112-4.477h-2.997a.29.29 0 0 1-.31-.302l.055-3.578a.5.5 0 0 1 .162-.333.5.5 0 0 1 .348-.155h3.823l1.144-4.648c.2-.653.307-1.331.316-2.014 0-.441-.41-.565-.842-.565-1.081 0-1.583.836-1.815 1.781l-.773 3.06a.54.54 0 0 1-.494.403h-6.674a.3.3 0 0 1-.142-.032.31.31 0 0 1-.16-.371l.534-2.146c.486-1.96 1.406-4.461 3.352-5.778 1.947-1.317 4.998-1.55 7.06-1.55 2.28 0 4.736.38 6.18 1.89 1.445 1.51 1.398 3.424.873 5.554l-3.383 13.633c-.556 2.254-1.6 4.749-3.708 6.367s-4.774 2.022-7.045 2.022-4.96-.333-6.257-1.967-.942-4.47-.386-6.74l.487-1.951a.54.54 0 0 1 .502-.403h6.666a.31.31 0 0 1 .311.257.3.3 0 0 1-.01.146l-1.043 4.206c-.216.883-.224 1.82.835 1.82a1.295 1.295 0 0 0 1.267-.705z" clip-rule="evenodd"/></svg>