<svg xmlns="http://www.w3.org/2000/svg" width="130" height="70" fill="none" viewBox="0 0 130 70"><path fill="#000" d="M5 23.581h10.958v6.543c0 1.161-.486 2.164-1.241 2.955a4.33 4.33 0 0 1-3.023 1.214H5zm23.752 0v10.765h-6.748c-1.188 0-2.213-.475-3.023-1.214a4.14 4.14 0 0 1-1.241-2.955v-6.596zm0 23.219H17.794v-6.596c0-1.161.485-2.164 1.241-2.955a4.33 4.33 0 0 1 3.023-1.214h6.694zM5 46.8V36.088h6.694c1.187 0 2.213.475 3.023 1.214a4.14 4.14 0 0 1 1.241 2.955V46.8zm58.084-8.443 12.415-11.082h3.671v15.831H75.5V31.972L63.083 43.106h-3.671v-15.83h3.67zM44.136 27.38h12.956v3.588H44.136c-2.429 0-4.372 1.9-4.372 4.274s1.943 4.275 4.372 4.275h12.956v3.588H44.136c-4.426 0-8.043-3.535-8.043-7.863 0-4.327 3.563-7.862 8.043-7.862M97.47 40.257H86.242l-1.728 2.849h-4.102l9.878-15.83h3.67l9.34 15.83h-4.103zm-9.231-3.272h7.233l-2.807-6.016h-1.08zm18.569-9.71H125v15.831h-3.671V30.864h-10.85v6.174c0 3.377-2.807 6.068-6.208 6.068v-3.588c1.404 0 2.537-1.108 2.537-2.48z"/><path fill="#000" d="m63.084 38.357 12.415-11.082h3.671v15.831H75.5V31.972L63.083 43.106h-3.671v-15.83h3.67zM44.136 27.38h12.956v3.588H44.136c-2.429 0-4.372 1.9-4.372 4.274s1.943 4.275 4.372 4.275h12.956v3.588H44.136c-4.426 0-8.043-3.535-8.043-7.863 0-4.327 3.563-7.862 8.043-7.862M97.47 40.257H86.242l-1.728 2.849h-4.102l9.878-15.83h3.67l9.34 15.83h-4.103zm-9.231-3.272h7.233l-2.807-6.016h-1.08zm18.569-9.71H125v15.831h-3.671V30.864h-10.85v6.174c0 3.377-2.807 6.068-6.208 6.068v-3.588c1.404 0 2.537-1.108 2.537-2.48z"/></svg>