<svg xmlns="http://www.w3.org/2000/svg" width="130" height="70" fill="none" viewBox="0 0 130 70"><path fill="#000" fill-rule="evenodd" d="M111.707 36.839v-3.731l-3.358 3.73h-2.211v-6.277h2.293v3.552l3.194-3.552H114v6.278zm-2.798-7.31h2.212v.66h-2.212zm-6.061 3.579-3.357 3.73h-2.212v-6.277h2.294v3.552l3.193-3.552h2.375v6.278h-2.293zm-8.926 1.335h-2.785v2.396h-2.293V30.56h2.293v1.983h2.785V30.56h2.375v1.666q0 .55-.437.95-.355.316-.765.372.437.096.778.453.424.441.424 1.033v1.804h-2.375zm1.197 9.47H92.84v4.513h-2.279v-4.514h-2.279v-1.724h6.836zM81.5 36.342q-.382-.44-.382-1.24v-2.807q0-.785.416-1.26.417-.475 1.304-.475h4.996v1.735h-4.422v2.808h4.422v1.735h-4.996q-.9 0-1.338-.496m-2.975.496h-4v3.304h-2.293v-9.664h6.142q.901 0 1.338.495.382.44.382 1.24v2.725q0 .812-.368 1.321-.423.579-1.201.579m-.724-4.626h-3.275v2.726H77.8zm-.738 9.976q.895 0 1.329.491.38.438.38 1.232v2.105H73.97l.03-1.281h2.754l-.03-.824h-3.337v2.79h5.385v1.724h-5.955q-.895 0-1.329-.492-.38-.439-.38-1.231v-2.79q0-.78.414-1.253.413-.471 1.295-.471zm-8.08-9.081-3.357 3.73h-2.211V30.56h2.293v3.552l3.194-3.552h2.375v6.278h-2.293zm-8.364 3.73h-4.427q-.889 0-1.302-.474-.416-.475-.416-1.26V28.84q0-.798.382-1.239.438-.495 1.337-.496h6.061v1.735h-5.487v1.721h3.85q.886 0 1.323.496.396.454.396 1.24v2.807q0 .798-.382 1.24-.435.495-1.335.495m-.576-4.543h-3.276v2.808h3.276zm-1.037 9.892q.897 0 1.329.492.38.438.38 1.232v2.105h-4.802l.031-1.281h2.753l-.03-.824H55.33v2.79h5.384v1.724H54.76q-.895 0-1.328-.492-.38-.439-.38-1.231v-2.79q0-.78.413-1.253.414-.471 1.295-.471zm-7.903-9.08-3.358 3.73h-2.212v-6.277h2.293v3.552l3.195-3.552h2.375v6.278h-2.293zm-.185 4.929v6.761h-3.843v-6.761zm.894 10.638h-12.96v-6.927h3.843V45.7h9.117zm-12.96-8.703h3.843v.888h-3.843zm0-1.935h3.842v1.048h-3.843zm27.073 5.793 1.682-1.723h2.278v6.32h-2.278v-3.844l-1.695 1.764-1.696-1.764v3.843h-2.279v-6.32h2.28zm16.334.329h2.767v-1.97h2.278v6.237h-2.278v-2.38h-2.767v2.38h-2.278V42.19h2.278z" clip-rule="evenodd"/><path fill="#000" fill-rule="evenodd" d="M107.39 29.166h-3.994a4.5 4.5 0 0 0-.376-1.645c-2.972-6.736-22.334-7.914-43.1-2.622-6.14 1.566-11.775 3.521-16.59 5.674l-.013-.005-.169-.053-.222-.052-.282-.03-.225.012-1.416.13-1.045-.066-.798-.202-.577-.286-.392-.329-.252-.35-.142-.364-.045-.372.046-.368.133-.349.22-.312.307-.263.414-.202.547-.116.707.014 1.993.449 2.245-3.967a140 140 0 0 1 11.328-4.382c25.916-8.777 50.673-9.182 55.107-.899 1.64 3.063.271 6.896-3.409 10.955M27.135 46.69c2.903 6.58 21.895 7.904 42.125 3.032h.914c-25.322 8.253-49.147 8.472-53.488.363-2.748-5.133 2.94-12.428 13.828-19.324l.108.35.2.508.241.497.282.483.323.468.363.45.404.431.443.41.482.388.521.363.504.306c-5.81 3.895-8.716 7.952-7.25 11.275" clip-rule="evenodd"/><path fill="#000" fill-rule="evenodd" d="M39.645 35.678c-8.48-1.271-9.66-7.44-6.75-11.302 2.283-3.033 6.454-4.083 10.178-1.416l-1.648 2.912c-7.297-2.327-7.606 8.247 1.096 5.963.227-.06.465.121.708.172l.148.03c.116.025.332.287.216.375-1.638 1.246-2.29 2.988-2.495 4.956-.055.527-1.366-1.037-1.453-1.69" clip-rule="evenodd"/></svg>