<svg xmlns="http://www.w3.org/2000/svg" width="130" height="70" fill="none" viewBox="0 0 130 70"><path fill="#000" d="M2 23.038v29.7l10.12-10.294V30.249H7.612v-3.192h15.273l7.26 10.157V24.029L38.996 15H9.88z"/><path fill="#000" d="m41.371 47.123-7.88 8.037H4.376L15.52 43.792V30.249H20v12.855h3.372V32.947l7.232 10.157h2.888V25.46l7.88-8.038z"/><path fill="#000" fill-rule="evenodd" d="M104.141 19.763c-3.805 0-6.638 2.917-6.638 6.523 0 3.634 2.806 6.524 6.584 6.524 3.805 0 6.639-2.918 6.639-6.524 0-3.633-2.807-6.523-6.585-6.523m-.054 3.138c1.889 0 3.158 1.569 3.158 3.385 0 1.845-1.242 3.386-3.131 3.386-1.862 0-3.13-1.569-3.13-3.386 0-1.844 1.241-3.385 3.103-3.385" clip-rule="evenodd"/><path fill="#000" d="M46.285 23.066h3.697v9.497h3.4v-9.497h3.67v-3.028H46.285z"/><path fill="#000" fill-rule="evenodd" d="M89.596 43.875c0-3.606 2.833-6.523 6.638-6.523 3.778 0 6.612 2.89 6.612 6.523 0 3.606-2.834 6.524-6.639 6.524s-6.611-2.89-6.611-6.524m9.742 0c0-1.816-1.269-3.385-3.158-3.385-1.862 0-3.103 1.541-3.103 3.385 0 1.817 1.268 3.386 3.13 3.386 1.89 0 3.13-1.541 3.13-3.386" clip-rule="evenodd"/><path fill="#000" d="M49.982 37.6h3.4v4.707h4.372V37.6h3.4v12.552h-3.4v-4.763h-4.372v4.762h-3.4zm13.817 0h3.373v7.074l4.75-7.074h3.183v12.552h-3.373v-7.075l-4.749 7.075h-3.184zm17.35 0h-3.4v12.552h3.4v-3.249l1.242-1.403 3.103 4.652h4.075l-4.803-7.157 4.641-5.395h-4.02l-4.237 5.092z"/><path fill="#000" fill-rule="evenodd" d="M121.439 41.536V37.6h-3.427v12.524h5.451c2.995 0 4.938-1.624 4.938-4.322 0-2.835-2.159-4.266-5.1-4.266zm3.562 4.184c0 .99-.648 1.514-1.781 1.514v-.028h-1.781v-2.945h1.781c1.106 0 1.781.578 1.781 1.459" clip-rule="evenodd"/><path fill="#000" d="M105.841 37.627v5.478c0 1.294-.135 3.166-.971 3.854-.405.302-1.053.55-1.457.55v2.945h.323c1.188 0 2.483-.495 2.996-.798 2.051-1.321 2.293-3.853 2.293-6.716v-2.285h2.969v9.497h3.4V37.627zm-46.98-17.589h9.876v2.945h-6.53v1.9h5.91v2.725h-5.91v2.01h6.611v2.945h-9.957zm11.522 0 4.048 6.138-4.237 6.387h3.832L76.4 28.79l2.347 3.771h3.913l-4.21-6.413 4.048-6.11h-3.832L76.48 23.56l-2.185-3.523zm13.897 0h3.4v4.68h4.372v-4.68h3.4v12.525h-3.4V27.8H87.68v4.762h-3.4z"/></svg>