<svg xmlns="http://www.w3.org/2000/svg" width="130" height="70" fill="none" viewBox="0 0 130 70"><path fill="#000" fill-rule="evenodd" d="M25.787 26.683h4.623v9.893c0 6.02-4.895 10.911-10.914 10.911H9.624v-4.624H5V32.97c0-6.02 4.895-10.91 10.914-10.91h9.873zm-9.236 9.237v-2.294h2.31v2.294zm11.555.656c0 4.748-3.862 8.607-8.61 8.607h-7.568v-2.305h7.568a6.303 6.303 0 0 0 6.297-6.295v-5.276H15.571c-.73 0-1.329.598-1.329 1.329v3.284H11.93v-3.291c0-2.134 1.763-3.642 3.642-3.642h12.535zM7.304 32.97c0-4.748 3.862-8.607 8.61-8.607h7.57v2.304h-7.57a6.303 6.303 0 0 0-6.297 6.296v5.276h10.225c.73 0 1.329-.597 1.329-1.328v-3.285h2.313v3.291c0 2.134-1.763 3.642-3.642 3.642H7.303zm115.389-2.81c0-.63-.523-1.154-1.153-1.154h-4.614v9.227h-2.307v-9.227h-5.767v9.227h-2.307V26.7h14.995a3.47 3.47 0 0 1 3.46 3.46v8.074h-2.307zm-38.064-3.461h2.307v11.534H84.63V33.62H74.25v4.614h-2.31V26.7h2.307v4.614H84.63zm-31.143 8.074a3.47 3.47 0 0 0 3.46 3.46h12.689v-2.307H56.947c-.63 0-1.154-.523-1.154-1.153V33.62h10.345a3.47 3.47 0 0 0 3.46-3.46 3.47 3.47 0 0 0-3.46-3.46h-9.191a3.47 3.47 0 0 0-3.461 3.46zm2.307-3.46h10.345c.63 0 1.153-.524 1.153-1.154s-.523-1.153-1.153-1.153h-9.191c-.63 0-1.154.524-1.154 1.153zm46.138-4.614h2.307v11.534h-2.307v-8.546L91.55 38.233h-2.307V26.7h2.307v8.546zm-66.9 0h12.688a3.47 3.47 0 0 1 3.46 3.46c0 .853-.316 1.674-.887 2.307.571.633.887 1.455.887 2.307a3.47 3.47 0 0 1-3.46 3.46H35.03v-2.307h12.688c.63 0 1.153-.523 1.153-1.153s-.523-1.154-1.153-1.154h-10.38v-2.306h10.38c.63 0 1.154-.524 1.154-1.153 0-.63-.523-1.154-1.153-1.154H35.03zm1.697 16.214h4.51a.567.567 0 0 1 .565.566v2.262a.57.57 0 0 1-.566.567h-4.509a.57.57 0 0 1-.565-.567V43.48a.567.567 0 0 1 .565-.566m0 4.526h4.51c.933 0 1.697-.764 1.697-1.698V43.48c0-.934-.764-1.698-1.698-1.698h-4.509c-.933 0-1.697.764-1.697 1.698v2.262c0 .934.764 1.698 1.697 1.698m16.906-3.395h5.074c.934 0 1.698.764 1.698 1.698s-.764 1.697-1.698 1.697h-6.206v-5.658h7.373v1.132h-6.241zm0 2.263h5.074a.57.57 0 0 0 .566-.566.57.57 0 0 0-.167-.398.57.57 0 0 0-.399-.167h-5.074zm-8.436-1.328 4.282-3.198h1.891l-3.72 2.778 1.287 1.014 2.432 1.914-1.89-.048-1.519-1.195-1.25-.984-.074.056-1.439 1.075v1.048h-1.132v-5.658h1.132z" clip-rule="evenodd"/></svg>